HIERARCHY
ROOT Spine1
{
	OFFSET 0.000000 0.000000 0.000000
	CHANNELS 6 Xposition Yposition Zposition Yrotation Zrotation Xrotation
	JOINT ShoulderCenter
	{
		OFFSET -0.279778 18.634689 -0.311875
		CHANNELS 3 Yrotation Zrotation Xrotation
		JOINT Head
		{
			OFFSET 0.595465 18.120295 -1.545906
			CHANNELS 3 Yrotation Zrotation Xrotation
			End Site
			{
				OFFSET 0.000000 0.000000 0.000000
			}
		}
	}
	JOINT ShoulderCenterRight
	{
		OFFSET -0.279778 18.634689 -0.311875
		CHANNELS 3 Yrotation Zrotation Xrotation
		JOINT RightShoulder
		{
			OFFSET 17.562130 -12.035134 -1.532722
			CHANNELS 3 Yrotation Zrotation Xrotation
			JOINT RightElbow
			{
				OFFSET 9.033963 -25.845810 1.698232
				CHANNELS 3 Yrotation Zrotation Xrotation
				JOINT RightWrist
				{
					OFFSET 5.035375 -21.783009 -5.845833
					CHANNELS 3 Yrotation Zrotation Xrotation
					JOINT RightHand
					{
						OFFSET -1.053756 -8.369682 -2.558780
						CHANNELS 3 Yrotation Zrotation Xrotation
						End Site
						{
							OFFSET 0.000000 0.000000 0.000000
						}
					}
				}
			}
		}
	}
	JOINT ShoulderCenterLeft
	{
		OFFSET -0.279778 18.634689 -0.311875
		CHANNELS 3 Yrotation Zrotation Xrotation
		JOINT LeftShoulder
		{
			OFFSET -16.681293 -13.220477 -3.409553
			CHANNELS 3 Yrotation Zrotation Xrotation
			JOINT LeftElbow
			{
				OFFSET -9.236145 -22.532917 5.516505
				CHANNELS 3 Yrotation Zrotation Xrotation
				JOINT LeftWrist
				{
					OFFSET -5.256438 -22.612366 -10.389209
					CHANNELS 3 Yrotation Zrotation Xrotation
					JOINT LeftHand
					{
						OFFSET 0.617352 -7.744606 -1.188421
						CHANNELS 3 Yrotation Zrotation Xrotation
						End Site
						{
							OFFSET 0.000000 0.000000 0.000000
						}
					}
				}
			}
		}
	}
	JOINT Spine
	{
		OFFSET 0.279778 -18.634686 0.311899
		CHANNELS 3 Yrotation Zrotation Xrotation
		JOINT HipCenterRight
		{
			OFFSET 0.414468 -6.592295 -5.606747
			CHANNELS 3 Yrotation Zrotation Xrotation
			JOINT RightHip
			{
				OFFSET 7.841097 -7.644472 0.161052
				CHANNELS 3 Yrotation Zrotation Xrotation
				JOINT RightKnee
				{
					OFFSET 3.400716 -49.365768 7.996106
					CHANNELS 3 Yrotation Zrotation Xrotation
					JOINT RightAnkle
					{
						OFFSET 0.881244 -34.600197 1.931334
						CHANNELS 3 Yrotation Zrotation Xrotation
						JOINT RightFoot
						{
							OFFSET 2.352630 -5.482430 -4.730678
							CHANNELS 3 Yrotation Zrotation Xrotation
							End Site
							{
								OFFSET 0.000000 0.000000 0.000000
							}
						}
					}
				}
			}
		}
		JOINT HipCenterLeft
		{
			OFFSET 0.414468 -6.592295 -5.606747
			CHANNELS 3 Yrotation Zrotation Xrotation
			JOINT LeftHip
			{
				OFFSET -7.487789 -7.809803 -2.387071
				CHANNELS 3 Yrotation Zrotation Xrotation
				JOINT LeftKnee
				{
					OFFSET -6.239526 -47.269646 8.046913
					CHANNELS 3 Yrotation Zrotation Xrotation
					JOINT LeftAnkle
					{
						OFFSET -0.152031 -37.003647 2.846551
						CHANNELS 3 Yrotation Zrotation Xrotation
						JOINT LeftFoot
						{
							OFFSET -2.340865 -6.240869 -6.141472
							CHANNELS 3 Yrotation Zrotation Xrotation
							End Site
							{
								OFFSET 0.000000 0.000000 0.000000
							}
						}
					}
				}
			}
		}
	}
}
MOTION
Frames: 12
Frame Time: 0.033333
2.026541 1.227123 0.355649 0.002847 -2.470709 1.208458 -0.183384 -2.148124 -0.001026 0.0 0.0 0.0 -0.158207 -1.999649 -0.282370 -0.523354 2.600085 -2.109193 -0.500532 3.428589 2.115737 -0.924293 5.832631 -4.762455 0.0 0.0 0.0 1.523320 -6.684167 0.262211 -23.754112 -65.913406 1.699850 10.485188 -21.621386 -8.677041 7.651283 -18.031233 19.788170 0.0 0.0 0.0 -0.183544 0.253108 0.535394 0.402107 -0.150678 0.395169 0.078312 1.282850 -2.249515 0.057501 1.040472 -0.036180 2.216073 -1.582580 1.879249 0.0 0.0 0.0 0.853883 -0.604604 -0.698867 0.551157 2.531501 -0.785914 0.018722 0.183938 -0.798485 -1.014879 1.103074 -0.170221 0.0 0.0 0.0 
2.030189 1.225549 0.356007 0.002569 -2.484011 1.203159 -0.179978 -2.101418 0.039643 0.0 0.0 0.0 -0.137975 -1.751252 -0.246951 -0.554642 2.329900 -2.135657 -0.518354 3.503611 2.135829 -0.911604 5.889740 -4.917922 0.0 0.0 0.0 1.363246 -6.312775 0.300158 -24.113373 -65.455406 0.005546 10.129441 -20.798773 -7.335117 8.919558 -21.163618 20.551355 0.0 0.0 0.0 -0.196878 0.268794 0.537717 0.380456 -0.118310 0.373388 0.037629 1.055947 -2.237866 0.066390 1.211520 -0.084452 1.076606 -1.453220 -0.381243 0.0 0.0 0.0 0.858169 -0.596211 -0.706065 0.549430 2.533926 -0.771988 0.017795 0.175972 -0.752893 -0.507210 0.804469 -0.732581 0.0 0.0 0.0 
2.032126 1.235163 0.362921 0.001822 -2.480954 1.182250 -0.175200 -2.003654 0.271781 0.0 0.0 0.0 -0.179800 -1.565149 -0.259879 -0.546182 2.126512 -2.059577 -0.512068 3.535386 2.213004 -0.807487 6.364721 -6.172286 0.0 0.0 0.0 1.362595 -6.326888 0.303903 -23.597145 -64.661163 0.107894 10.308314 -21.223831 -5.939566 6.802418 -16.134920 18.887856 0.0 0.0 0.0 -0.192351 0.263876 0.542814 0.442030 -0.156274 0.434215 0.037598 1.069130 -2.278588 0.069970 1.279117 -0.101690 0.913286 -1.488832 -0.815944 0.0 0.0 0.0 0.949786 -0.541389 -0.819765 0.506330 2.465403 -0.570497 0.011329 0.098434 -0.755158 -0.964975 1.156210 -0.429982 0.0 0.0 0.0 
2.005301 1.236981 0.481319 0.009173 -2.453609 1.379287 -0.146789 -1.809806 -0.454098 0.0 0.0 0.0 0.066997 -1.412197 -0.075872 -0.669177 1.922799 -2.375903 -0.559555 3.687883 2.198757 -0.883325 6.237309 -5.573676 0.0 0.0 0.0 1.077834 -6.389817 0.538154 -23.398964 -64.236137 -0.048848 9.863882 -20.234755 -5.803770 5.815171 -13.552404 18.194410 0.0 0.0 0.0 -0.184552 0.250982 0.487822 0.530135 -0.217807 0.521406 0.030667 1.111796 -2.526440 0.076290 1.364244 0.008333 0.378706 -1.039933 -1.172574 0.0 0.0 0.0 1.083435 -0.461005 -0.985821 0.473382 2.372186 -0.461475 0.015510 0.152698 -0.690432 1.282200 -0.836063 -1.277995 0.0 0.0 0.0 
1.985247 1.216233 0.524092 0.013362 -2.395450 1.488315 -0.106200 -1.423360 -0.750489 0.0 0.0 0.0 0.194716 -1.314576 0.020771 -0.716527 1.857348 -2.500178 -0.636158 3.735296 1.884587 -0.782463 5.727707 -5.417600 0.0 0.0 0.0 0.966099 -6.347104 0.614580 -22.560410 -62.895325 0.117378 10.123697 -20.843052 -4.186101 5.404136 -12.873101 17.253592 0.0 0.0 0.0 -0.153194 0.211151 0.440933 0.565118 -0.191800 0.554983 0.017735 1.075646 -2.631036 0.061177 1.209390 -0.426500 -0.288069 0.761666 0.880266 0.0 0.0 0.0 1.119697 -0.453152 -1.026400 0.474741 2.376007 -0.466023 0.007574 0.057453 -0.683453 -0.181154 0.397559 -0.552040 0.0 0.0 0.0 
1.898222 1.169705 0.605226 0.019901 -2.236478 1.660497 -0.053718 -1.147881 -1.939487 0.0 0.0 0.0 0.348354 -1.390417 0.120563 -0.794020 2.033308 -2.776714 -0.515637 3.506746 2.153820 -0.686544 5.348996 -5.418229 0.0 0.0 0.0 0.780091 -6.291083 0.745250 -20.543192 -60.640411 2.820946 10.405486 -21.446400 -3.728560 1.668278 -2.738147 11.780269 0.0 0.0 0.0 -0.113501 0.160480 0.379307 0.518652 -0.179064 0.509406 -0.002435 0.988946 -2.698140 0.065955 1.243380 -0.237880 0.047072 0.358393 0.835592 0.0 0.0 0.0 1.100445 -0.502516 -0.990316 0.507902 2.416862 -0.635855 -0.014807 -0.206264 -0.461370 -1.267699 1.701187 -0.996446 0.0 0.0 0.0 
1.889768 1.139966 0.618362 0.020566 -2.175587 1.676070 0.041907 -0.419391 -2.656844 0.0 0.0 0.0 0.427242 -1.210289 0.190228 -0.844095 1.955999 -2.905576 -0.529505 3.793507 2.504464 -0.448547 3.649364 -4.186179 0.0 0.0 0.0 0.928233 -6.268330 0.625832 -18.880938 -58.498505 5.397322 9.412093 -19.271585 -4.916766 4.379291 -11.868773 13.600833 0.0 0.0 0.0 -0.014014 0.045894 0.401151 0.464229 -0.108000 0.454864 -0.007753 0.954082 -2.678778 0.064618 1.254513 -0.374606 -0.713234 1.032024 0.434127 0.0 0.0 0.0 1.063193 -0.408823 -0.981354 0.510570 2.387929 -0.686277 -0.027544 -0.362825 -0.397607 -1.312074 1.657283 -0.777774 0.0 0.0 0.0 
1.835554 1.051778 0.639653 0.021460 -1.970553 1.690397 0.069391 -0.300111 -3.134727 0.0 0.0 0.0 0.673823 -1.201201 0.361213 -0.988674 2.262846 -3.421336 -0.312884 3.352715 2.928579 -0.512853 3.538710 -3.585985 0.0 0.0 0.0 1.097915 -6.404984 0.526134 -17.889345 -56.974010 6.995099 8.649948 -17.479321 -5.974436 4.694700 -13.022059 13.592507 0.0 0.0 0.0 0.161934 -0.156448 0.441465 0.414900 0.067198 0.403133 -0.041358 0.790451 -2.729208 0.062890 1.187303 -0.225696 -1.006070 0.939807 -0.463523 0.0 0.0 0.0 1.077575 -0.196147 -1.064636 0.452518 2.115659 -0.618143 -0.024893 -0.328200 -0.288957 -1.004825 1.314613 -0.720041 0.0 0.0 0.0 
1.692083 0.987566 0.639033 0.020544 -1.595409 1.632951 0.017625 -0.775467 -3.208179 0.0 0.0 0.0 0.998270 -1.375157 0.570945 -1.138599 2.539235 -3.951467 -0.181842 3.175426 3.307768 -0.398313 3.125687 -3.604310 0.0 0.0 0.0 1.182923 -6.254900 0.426183 -15.485708 -49.962189 5.209063 10.067500 -20.829927 1.816682 1.779737 -2.882358 12.454046 0.0 0.0 0.0 0.397204 -0.431905 0.430575 0.407740 0.330441 0.390680 -0.105867 0.424736 -2.672624 0.063209 1.171907 -0.146183 -0.913139 0.866917 -0.390983 0.0 0.0 0.0 1.026371 -0.077423 -1.048868 0.425167 1.959433 -0.617993 -0.035396 -0.460139 -0.026681 -0.530601 0.453526 0.221815 0.0 0.0 0.0 
1.557665 0.952083 0.527287 0.013006 -1.300811 1.319152 -0.058066 -1.191914 -1.946697 0.0 0.0 0.0 0.723857 -1.178813 0.397597 -1.032234 2.119084 -3.511374 -0.138694 3.084430 3.383444 -0.510644 3.297739 -3.177424 0.0 0.0 0.0 1.406795 -6.307402 0.265274 -15.359722 -49.788807 5.798758 5.991310 -12.386983 -1.321849 5.752886 -12.599796 19.361910 0.0 0.0 0.0 0.493749 -0.530046 0.605482 0.414243 0.263294 0.398418 -0.108008 0.376607 -2.569519 0.051550 0.919055 0.013651 -1.674869 1.419127 -1.092424 0.0 0.0 0.0 0.973190 -0.253119 -0.936899 0.410552 1.900784 -0.588777 -0.035454 -0.460919 -0.052394 -0.691464 0.623412 0.205443 0.0 0.0 0.0 
1.496604 0.906020 0.456834 0.010352 -1.155380 1.183083 -0.028037 -0.743697 -1.344001 0.0 0.0 0.0 0.645608 -1.031182 0.355874 -1.026578 1.942655 -3.445215 0.032963 2.747123 3.714595 -0.487140 3.727067 -4.071861 0.0 0.0 0.0 1.581033 -6.006714 0.061445 -13.461526 -44.869633 10.884819 7.588819 -15.228506 -4.763657 2.029442 -2.771022 14.998126 0.0 0.0 0.0 0.572224 -0.618117 0.644153 0.394755 0.363611 0.377329 -0.126906 0.234279 -2.459021 0.051849 0.903259 0.080775 -1.682063 1.104594 -1.774778 0.0 0.0 0.0 0.931974 -0.259395 -0.891671 0.375892 1.739203 -0.545240 -0.023039 -0.303089 -0.190798 -2.054702 1.817480 0.681507 0.0 0.0 0.0 
1.481807 0.931859 0.348473 0.004431 -1.130381 0.938563 0.001902 -0.288777 -0.874597 0.0 0.0 0.0 0.550751 -1.497227 0.251587 -0.829875 2.815082 -3.095900 0.123872 2.281567 3.476705 -0.546457 3.711821 -3.669720 0.0 0.0 0.0 1.998781 -5.238561 -0.438810 -12.355730 -40.628235 10.289215 6.042465 -12.092045 -3.154670 4.113037 -7.885980 18.806694 0.0 0.0 0.0 0.732045 -0.813389 0.538205 0.507892 0.750215 0.479527 -0.146890 0.055550 -2.271679 0.049483 0.853546 0.101624 -0.865318 0.679979 -0.663308 0.0 0.0 0.0 0.830815 -0.150034 -0.820646 0.338354 1.804966 -0.214268 -0.024463 -0.323566 -0.337524 -1.713097 1.767277 -0.039812 0.0 0.0 0.0 
